<svg width="60" height="60" viewBox="0 0 44 44" fill="none" xmlns="http://www.w3.org/2000/svg">
<path d="M35.5021 33H8.7169C7.29468 33 6.1095 31.8421 6.1095 30.4211V12.6053C6.1095 11.1842 7.29468 10 8.7169 10H35.5021C36.9243 10 38.1095 11.1842 38.1095 12.6053V30.4211C38.0832 31.8421 36.9243 33 35.5021 33Z" stroke="#616E7D" stroke-width="1.2" stroke-miterlimit="10"/>
<path d="M9.29633 26.3684L17.2502 18.0789L22.465 22.6316L31.1564 14.2368" stroke="#616E7D" stroke-width="1.2" stroke-miterlimit="10"/>
<path d="M38.087 27.312H31.0834C29.9124 27.312 28.9666 26.2656 28.9666 24.97V23.2759C28.9666 21.9803 29.9124 20.9339 31.0834 20.9339H37.9068C38.0194 20.9339 38.1095 21.0336 38.1095 21.1581V27.312H38.087Z" stroke="#616E7D" stroke-width="1.2" stroke-miterlimit="10"/>
<path d="M32.4319 25.6053C33.3338 25.6053 34.0649 24.8748 34.0649 23.9737C34.0649 23.0726 33.3338 22.3421 32.4319 22.3421C31.5301 22.3421 30.799 23.0726 30.799 23.9737C30.799 24.8748 31.5301 25.6053 32.4319 25.6053Z" fill="#616E7D"/>
<path fill-rule="evenodd" clip-rule="evenodd" d="M31.7258 13.6816L31.5729 17.8357L30.4765 17.7957L30.587 14.7919L27.5826 14.836L27.5664 13.7428L31.7258 13.6816Z" fill="#616E7D"/>
</svg>
