<svg width="50" height="50" viewBox="0 0 30 30" fill="none" xmlns="http://www.w3.org/2000/svg">
<path d="M22.6313 26H7.0769C6.33886 26 5.73248 25.3945 5.73248 24.6499V16.5631C5.73248 15.8219 6.33539 15.213 7.0769 15.213H22.6313C23.3694 15.213 23.9757 15.8184 23.9757 16.5631V24.6534C23.9757 25.3945 23.3694 26 22.6313 26Z" stroke="#616E7D" stroke-miterlimit="10"/>
<path d="M24.7016 15.0911H4.78143C4.35321 15.0911 4 14.7357 4 14.2978V12.7526C4 12.3179 4.35008 11.9594 4.78143 11.9594H24.7016C25.1298 11.9594 25.483 12.3147 25.483 12.7526V14.2978C25.483 14.7357 25.1298 15.0911 24.7016 15.0911Z" stroke="#616E7D" stroke-miterlimit="10"/>
<path d="M12.413 5L7.81152 13.6366" stroke="#616E7D" stroke-miterlimit="10"/>
<path d="M16.9834 5L21.8483 13.6366" stroke="#616E7D" stroke-miterlimit="10"/>
<path d="M9.18018 17.1025V23.4112" stroke="#616E7D" stroke-miterlimit="10"/>
<path d="M12.0111 17.1025V23.4112" stroke="#616E7D" stroke-miterlimit="10"/>
<path d="M15.0464 17.1025V23.4112" stroke="#616E7D" stroke-miterlimit="10"/>
<path d="M17.9398 17.1025V23.4112" stroke="#616E7D" stroke-miterlimit="10"/>
<path d="M20.9473 17.1025V23.4112" stroke="#616E7D" stroke-miterlimit="10"/>
</svg>
