<svg width="30" height="30" viewBox="0 0 30 30" fill="none" xmlns="http://www.w3.org/2000/svg">
<path d="M25.7241 14.7343C26.1236 14.2813 26.0844 13.5855 25.638 13.185L15.8049 4.29791C15.3584 3.8934 14.6418 3.90149 14.2071 4.31814L4.34265 13.6583C3.90406 14.0709 3.88448 14.7667 4.29566 15.2076L4.54237 15.4746C4.95355 15.9155 5.61536 15.9681 6.02263 15.5919L6.75884 14.9083V24.8916C6.75884 25.5024 7.24051 26 7.83183 26H11.6774C12.2687 26 12.7504 25.5065 12.7504 24.8916V17.9057H17.6532V24.8916C17.6454 25.5024 18.0683 26 18.6596 26H22.7362C23.3275 26 23.8092 25.5024 23.8092 24.8916V15.0499C23.8092 15.0499 24.0128 15.2319 24.2635 15.4625C24.5141 15.689 25.0388 15.5069 25.4383 15.0539L25.7241 14.7343Z" stroke="#616E7D" stroke-miterlimit="10"/>
</svg>
